<svg xmlns="http://www.w3.org/2000/svg" viewBox="0 0 115.6 67.87"><defs><style>.cls-1{fill:#211915;}</style></defs><title>Asset 1</title><g id="Layer_2" data-name="Layer 2"><g id="OBJECTS"><path class="cls-1" d="M115.6,66.8l-18.11-1V43.51l6.2,5-6.36-7.88-.16-.16a1.19,1.19,0,0,0-.31-.17,1.13,1.13,0,0,0-.44-.1H80.75V20.38L88.57,27l-8-9.46a1.07,1.07,0,0,0-.93-.55H62.17V3.38L70,10,62,.42l-.1-.11h0l0,0,0,0A1.08,1.08,0,0,0,61.1,0H37.22a1.07,1.07,0,0,0-1.07,1.07v29H17.91a1.07,1.07,0,0,0-1.07,1.08V65.79L0,66.8l17.83,1.07H18l.12,0h0a1.07,1.07,0,0,0,.78-1V32.23H36.15V47.82a1.07,1.07,0,1,0,2.14,0V2.14h6.29a1,1,0,0,0,.55.16h5.61a1,1,0,0,0,.55-.16H60v14.8H57.84A1.07,1.07,0,0,0,56.76,18V60.06a1.08,1.08,0,0,0,2.15,0v-41H78.6V51.8a1.08,1.08,0,0,0,2.15,0V42.35H95.34V66.86a1,1,0,0,0,.47.82h0l.16.09h0l.16,0h0l.16,0h.1Z"/><path class="cls-1" d="M30.08,34.9H24.46a1.08,1.08,0,0,0,0,2.15h5.62a1.08,1.08,0,0,0,0-2.15Z"/><path class="cls-1" d="M30.08,40H24.46a1.07,1.07,0,1,0,0,2.14h5.62a1.07,1.07,0,0,0,0-2.14Z"/><path class="cls-1" d="M30.08,45.11H24.46a1.07,1.07,0,0,0,0,2.14h5.62a1.07,1.07,0,0,0,0-2.14Z"/><path class="cls-1" d="M30.08,50.21H24.46a1.08,1.08,0,0,0,0,2.15h5.62a1.08,1.08,0,0,0,0-2.15Z"/><path class="cls-1" d="M30.08,55.32H24.46a1.07,1.07,0,1,0,0,2.14h5.62a1.07,1.07,0,0,0,0-2.14Z"/><path class="cls-1" d="M30.08,60.42H24.46a1.07,1.07,0,0,0,0,2.14h5.62a1.07,1.07,0,0,0,0-2.14Z"/><path class="cls-1" d="M50.74,5.26H45.13a1.07,1.07,0,1,0,0,2.14h5.61a1.07,1.07,0,1,0,0-2.14Z"/><path class="cls-1" d="M50.74,10.36H45.13a1.07,1.07,0,0,0,0,2.14h5.61a1.07,1.07,0,0,0,0-2.14Z"/><path class="cls-1" d="M50.74,15.46H45.13a1.08,1.08,0,0,0,0,2.15h5.61a1.08,1.08,0,0,0,0-2.15Z"/><path class="cls-1" d="M50.74,20.57H45.13a1.07,1.07,0,1,0,0,2.14h5.61a1.07,1.07,0,1,0,0-2.14Z"/><path class="cls-1" d="M50.74,25.67H45.13a1.07,1.07,0,0,0,0,2.14h5.61a1.07,1.07,0,1,0,0-2.14Z"/><path class="cls-1" d="M50.74,30.77H45.13a1.07,1.07,0,0,0,0,2.14h5.61a1.07,1.07,0,0,0,0-2.14Z"/><path class="cls-1" d="M50.74,35.87H45.13a1.08,1.08,0,0,0,0,2.15h5.61a1.08,1.08,0,0,0,0-2.15Z"/><path class="cls-1" d="M50.74,41H45.13a1.07,1.07,0,1,0,0,2.14h5.61a1.07,1.07,0,1,0,0-2.14Z"/><path class="cls-1" d="M50.74,46.08H45.13a1.07,1.07,0,0,0,0,2.14h5.61a1.07,1.07,0,0,0,0-2.14Z"/><path class="cls-1" d="M50.74,51.18H45.13a1.08,1.08,0,0,0,0,2.15h5.61a1.08,1.08,0,0,0,0-2.15Z"/><path class="cls-1" d="M50.74,56.29H45.13a1.07,1.07,0,1,0,0,2.14h5.61a1.07,1.07,0,1,0,0-2.14Z"/><path class="cls-1" d="M50.74,61.39H45.13a1.07,1.07,0,0,0,0,2.14h5.61a1.07,1.07,0,0,0,0-2.14Z"/><path class="cls-1" d="M71.1,20.57H65.49a1.07,1.07,0,1,0,0,2.14H71.1a1.07,1.07,0,1,0,0-2.14Z"/><path class="cls-1" d="M71.1,25.67H65.49a1.07,1.07,0,1,0,0,2.14H71.1a1.07,1.07,0,1,0,0-2.14Z"/><path class="cls-1" d="M71.1,30.77H65.49a1.07,1.07,0,1,0,0,2.14H71.1a1.07,1.07,0,1,0,0-2.14Z"/><path class="cls-1" d="M71.1,35.87H65.49a1.08,1.08,0,0,0,0,2.15H71.1a1.08,1.08,0,1,0,0-2.15Z"/><path class="cls-1" d="M71.1,41H65.49a1.07,1.07,0,1,0,0,2.14H71.1a1.07,1.07,0,1,0,0-2.14Z"/><path class="cls-1" d="M71.1,46.08H65.49a1.07,1.07,0,1,0,0,2.14H71.1a1.07,1.07,0,1,0,0-2.14Z"/><path class="cls-1" d="M71.1,51.18H65.49a1.08,1.08,0,0,0,0,2.15H71.1a1.08,1.08,0,1,0,0-2.15Z"/><path class="cls-1" d="M71.1,56.29H65.49a1.07,1.07,0,1,0,0,2.14H71.1a1.07,1.07,0,1,0,0-2.14Z"/><path class="cls-1" d="M71.1,61.39H65.49a1.07,1.07,0,1,0,0,2.14H71.1a1.07,1.07,0,1,0,0-2.14Z"/><path class="cls-1" d="M90.24,46.08H84.63a1.07,1.07,0,1,0,0,2.14h5.61a1.07,1.07,0,1,0,0-2.14Z"/><path class="cls-1" d="M90.24,51.18H84.63a1.08,1.08,0,0,0,0,2.15h5.61a1.08,1.08,0,0,0,0-2.15Z"/><path class="cls-1" d="M90.24,56.29H84.63a1.07,1.07,0,1,0,0,2.14h5.61a1.07,1.07,0,1,0,0-2.14Z"/><path class="cls-1" d="M90.24,61.39H84.63a1.07,1.07,0,1,0,0,2.14h5.61a1.07,1.07,0,1,0,0-2.14Z"/></g></g></svg>