<svg xmlns="http://www.w3.org/2000/svg" xmlns:xlink="http://www.w3.org/1999/xlink" viewBox="0 0 110.79 107.14"><defs><style>.cls-1{fill:url(#linear-gradient);}.cls-2{fill:url(#linear-gradient-2);}.cls-3{fill:url(#linear-gradient-3);}.cls-4{fill:url(#linear-gradient-4);}.cls-5{fill:url(#linear-gradient-5);}.cls-6{fill:url(#linear-gradient-6);}.cls-7{fill:#fff;fill-rule:evenodd;}.cls-8{fill:url(#linear-gradient-7);}.cls-9{fill:url(#linear-gradient-8);}.cls-10{fill:url(#linear-gradient-9);}.cls-11{fill:url(#linear-gradient-10);}.cls-12{fill:url(#linear-gradient-11);}.cls-13{fill:url(#linear-gradient-12);}.cls-14{fill:url(#linear-gradient-13);}.cls-15{fill:url(#linear-gradient-14);}.cls-16{fill:url(#linear-gradient-15);}.cls-17{fill:url(#linear-gradient-16);}.cls-18{fill:url(#linear-gradient-17);}.cls-19{fill:url(#linear-gradient-18);}.cls-20{fill:url(#linear-gradient-19);}.cls-21{fill:url(#linear-gradient-20);}.cls-22{fill:url(#linear-gradient-21);}.cls-23{fill:url(#linear-gradient-22);}.cls-24{fill:url(#linear-gradient-23);}.cls-25{fill:url(#linear-gradient-24);}.cls-26{fill:url(#linear-gradient-25);}.cls-27{fill:url(#linear-gradient-26);}.cls-28{fill:url(#linear-gradient-27);}.cls-29{fill:url(#linear-gradient-28);}.cls-30{fill:url(#linear-gradient-29);}.cls-31{fill:url(#linear-gradient-30);}.cls-32{fill:url(#linear-gradient-31);}.cls-33{fill:url(#linear-gradient-32);}.cls-34{fill:url(#linear-gradient-33);}.cls-35{fill:url(#linear-gradient-34);}.cls-36{fill:url(#linear-gradient-35);}.cls-37{fill:url(#radial-gradient);}.cls-38{font-size:18.1px;font-family:Bebas;}.cls-38,.cls-44{fill:#211915;}.cls-39{letter-spacing:0.01em;}.cls-40{fill:#0980d8;}.cls-41,.cls-42,.cls-43{fill:#001d7e;}.cls-41{letter-spacing:-0.01em;}.cls-43{letter-spacing:-0.01em;}.cls-44{font-size:5.17px;font-family:CaviarDreams-BoldItalic, CaviarDreams BoldItalic;font-weight:700;font-style:italic;letter-spacing:0.3em;}.cls-45{letter-spacing:0.3em;}.cls-46{letter-spacing:0.29em;}.cls-47{letter-spacing:0.29em;}.cls-48{letter-spacing:0.3em;}.cls-49{letter-spacing:0.3em;}.cls-50{letter-spacing:0.31em;}.cls-51{letter-spacing:0.3em;}</style><linearGradient id="linear-gradient" x1="58.9" y1="62.72" x2="58.9" y2="96.1" gradientUnits="userSpaceOnUse"><stop offset="0" stop-color="#88b6e5"/><stop offset="0.99" stop-color="#0061d9"/></linearGradient><linearGradient id="linear-gradient-2" x1="80.18" y1="44.58" x2="80.18" y2="105.29" xlink:href="#linear-gradient"/><linearGradient id="linear-gradient-3" x1="45.87" y1="22.09" x2="45.87" y2="94.44" xlink:href="#linear-gradient"/><linearGradient id="linear-gradient-4" x1="60.55" y1="30.5" x2="60.55" y2="75.16" gradientUnits="userSpaceOnUse"><stop offset="0" stop-color="#3d90e2"/><stop offset="0.98" stop-color="#0049b0"/></linearGradient><linearGradient id="linear-gradient-5" x1="49.02" y1="51.48" x2="49.02" y2="63.8" xlink:href="#linear-gradient-4"/><linearGradient id="linear-gradient-6" x1="30.15" y1="8.55" x2="30.15" y2="71.42" xlink:href="#linear-gradient-4"/><linearGradient id="linear-gradient-7" x1="40.11" y1="24.81" x2="40.11" y2="-2.76" xlink:href="#linear-gradient"/><linearGradient id="linear-gradient-8" x1="41.38" y1="24.81" x2="41.38" y2="-2.76" xlink:href="#linear-gradient"/><linearGradient id="linear-gradient-9" x1="42.65" y1="24.81" x2="42.65" y2="-2.76" xlink:href="#linear-gradient"/><linearGradient id="linear-gradient-10" x1="43.93" y1="24.81" x2="43.93" y2="-2.76" xlink:href="#linear-gradient"/><linearGradient id="linear-gradient-11" x1="45.2" y1="24.81" x2="45.2" y2="-2.76" xlink:href="#linear-gradient"/><linearGradient id="linear-gradient-12" x1="46.47" y1="24.81" x2="46.47" y2="-2.76" xlink:href="#linear-gradient"/><linearGradient id="linear-gradient-13" x1="47.74" y1="24.81" x2="47.74" y2="-2.76" xlink:href="#linear-gradient"/><linearGradient id="linear-gradient-14" x1="49.01" y1="24.81" x2="49.01" y2="-2.76" xlink:href="#linear-gradient"/><linearGradient id="linear-gradient-15" x1="50.29" y1="24.81" x2="50.29" y2="-2.76" xlink:href="#linear-gradient"/><linearGradient id="linear-gradient-16" x1="51.56" y1="24.81" x2="51.56" y2="-2.76" xlink:href="#linear-gradient"/><linearGradient id="linear-gradient-17" x1="72.89" y1="54.8" x2="72.89" y2="18.19" xlink:href="#linear-gradient"/><linearGradient id="linear-gradient-18" x1="74.51" y1="54.8" x2="74.51" y2="18.2" xlink:href="#linear-gradient"/><linearGradient id="linear-gradient-19" x1="77.74" y1="54.8" x2="77.74" y2="18.19" xlink:href="#linear-gradient"/><linearGradient id="linear-gradient-20" x1="79.36" y1="54.8" x2="79.36" y2="18.2" xlink:href="#linear-gradient"/><linearGradient id="linear-gradient-21" x1="80.98" y1="54.8" x2="80.98" y2="18.2" xlink:href="#linear-gradient"/><linearGradient id="linear-gradient-22" x1="82.6" y1="54.8" x2="82.6" y2="18.19" xlink:href="#linear-gradient"/><linearGradient id="linear-gradient-23" x1="84.21" y1="54.8" x2="84.21" y2="18.2" xlink:href="#linear-gradient"/><linearGradient id="linear-gradient-24" x1="85.83" y1="54.8" x2="85.83" y2="18.2" xlink:href="#linear-gradient"/><linearGradient id="linear-gradient-25" x1="87.45" y1="54.8" x2="87.45" y2="18.2" xlink:href="#linear-gradient"/><linearGradient id="linear-gradient-26" x1="55.97" y1="64.78" x2="55.97" y2="46.57" xlink:href="#linear-gradient"/><linearGradient id="linear-gradient-27" x1="56.67" y1="64.78" x2="56.67" y2="46.56" xlink:href="#linear-gradient"/><linearGradient id="linear-gradient-28" x1="57.38" y1="64.78" x2="57.38" y2="46.56" xlink:href="#linear-gradient"/><linearGradient id="linear-gradient-29" x1="58.08" y1="64.78" x2="58.08" y2="46.56" xlink:href="#linear-gradient"/><linearGradient id="linear-gradient-30" x1="58.79" y1="64.77" x2="58.79" y2="46.57" xlink:href="#linear-gradient"/><linearGradient id="linear-gradient-31" x1="59.49" y1="64.78" x2="59.49" y2="46.56" xlink:href="#linear-gradient"/><linearGradient id="linear-gradient-32" x1="60.19" y1="64.78" x2="60.19" y2="46.56" xlink:href="#linear-gradient"/><linearGradient id="linear-gradient-33" x1="60.9" y1="64.77" x2="60.9" y2="46.57" xlink:href="#linear-gradient"/><linearGradient id="linear-gradient-34" x1="61.6" y1="64.78" x2="61.6" y2="46.56" xlink:href="#linear-gradient"/><linearGradient id="linear-gradient-35" x1="62.31" y1="64.78" x2="62.31" y2="46.57" xlink:href="#linear-gradient"/><radialGradient id="radial-gradient" cx="52.64" cy="68.74" r="44.69" gradientTransform="translate(-0.7 -0.1) scale(1.07 1.12)" xlink:href="#linear-gradient"/></defs><title>Asset 1</title><g id="Layer_2" data-name="Layer 2"><g id="OBJECTS"><polygon class="cls-1" points="63.29 76.07 63.29 76.39 54.51 76.39 54.51 50.35 54.51 50.35 54.51 50.35 57.61 51.62 59.58 52.42 63.29 53.94 63.29 54.74 63.29 56.55 63.29 60.28 63.29 62.07 63.29 65.82 63.29 67.6 63.29 71.37 63.29 73.14 63.29 76.07"/><polygon class="cls-2" points="88.91 29.62 88.91 76.39 71.45 76.39 71.45 22.73 88.91 29.62"/><polygon class="cls-3" points="52.85 5.52 52.85 32.53 49.64 34.22 49.64 53.01 43.53 56.33 43.53 76.39 38.88 76.39 38.88 0 39.61 0.29 40.12 0.49 40.62 0.69 40.88 0.79 41.39 0.99 41.88 1.19 42.15 1.29 42.66 1.5 43.16 1.69 43.42 1.8 43.93 2 44.43 2.19 44.69 2.3 45.2 2.5 45.7 2.7 45.96 2.8 46.47 3 46.97 3.2 47.24 3.31 47.75 3.5 48.25 3.7 48.51 3.81 49.02 4.01 49.52 4.21 49.78 4.31 50.29 4.51 50.79 4.71 51.06 4.81 51.56 5.01 52.06 5.21 52.85 5.52"/><polygon class="cls-4" points="71.45 22.73 71.45 76.39 63.29 76.39 63.29 76.07 63.29 73.14 63.29 71.37 63.29 67.6 63.29 65.82 63.29 62.07 63.29 60.28 63.29 56.55 63.29 54.74 63.29 53.94 59.58 52.42 57.61 51.62 54.51 50.35 54.51 50.35 54.51 50.35 49.64 53 49.64 34.22 52.85 32.53 71.45 22.73"/><polygon class="cls-5" points="49.64 53 54.51 50.35 54.51 76.39 43.53 76.39 43.53 56.33 49.64 53"/><polygon class="cls-6" points="38.88 0 38.88 76.39 21.41 76.39 21.41 9.21 38.88 0"/><path class="cls-7" d="M36.11,5.51,23.16,12.2v1l13-6Z"/><path class="cls-7" d="M36.11,10.16,23.16,16.38v1l13-5.59Z"/><path class="cls-7" d="M36.11,14.8,23.16,20.57v1l13-5.15Z"/><path class="cls-7" d="M36.11,70.77l-12.95.66v1l4.13,0L35,72.32h1.11Z"/><path class="cls-7" d="M36.11,66.09,23.16,67.15v1l5-.2,7.92-.32Z"/><path class="cls-7" d="M36.11,19.45,23.16,24.77v1l13-4.71Z"/><path class="cls-7" d="M36.11,61.41,23.16,62.88v1l13-.92Z"/><path class="cls-7" d="M36.11,24.1,23.16,29v1l13-4.27Z"/><path class="cls-7" d="M36.11,56.74,23.16,58.62v1l13-1.32Z"/><path class="cls-7" d="M36.11,52.07,23.16,54.36v1l13-1.73Z"/><path class="cls-7" d="M36.11,33.41l-12.95,4v1l13-3.41Z"/><path class="cls-7" d="M36.11,28.75,23.16,33.18v1l13-3.84Z"/><path class="cls-7" d="M36.11,38.07,23.16,41.63v1l13-3Z"/><path class="cls-7" d="M36.11,47.4,23.16,50.11v1l13-2.14Z"/><path class="cls-7" d="M36.11,42.73,23.16,45.87v1l13-2.56Z"/><path class="cls-7" d="M68,29.61,51.82,38v1.3L68,31.71Z"/><path class="cls-7" d="M68,35.41,51.82,43.19v1.29l16.18-7Z"/><path class="cls-7" d="M68,41.21,51.82,48.42V49.7L68,43.27Z"/><path class="cls-7" d="M68,47v2l-7.39,2.69-2.09-.83Z"/><path class="cls-7" d="M68,52.83v2L64.56,56V54.12Z"/><path class="cls-7" d="M68,64.46v2l-3.44.91V65.52Z"/><path class="cls-7" d="M68,58.64v2l-3.44,1V59.82Z"/><path class="cls-7" d="M64.56,73.05l3.44-.8v-2l-3.44.94Z"/><path class="cls-7" d="M52.77,53.93l-8.14,4.35V59L52.77,55Z"/><path class="cls-7" d="M52.77,57l-8.14,4v.67L52.77,58Z"/><path class="cls-7" d="M52.77,60l-8.14,3.75v.67L52.77,61Z"/><path class="cls-7" d="M52.77,63l-8.14,3.46v.66l8.14-3.06Z"/><path class="cls-7" d="M52.77,66l-8.14,3.16v.66l8.14-2.77Z"/><path class="cls-7" d="M52.77,72.07l-8.14,2.6v.65l8.14-2.21Z"/><path class="cls-7" d="M52.77,69l-8.14,2.88v.66l8.14-2.49Z"/><polygon class="cls-8" points="40.62 1.78 40.12 21.43 39.61 1.38 40.12 1.58 40.62 1.78"/><polygon class="cls-9" points="41.39 2.08 41.88 2.27 41.39 21.92 40.88 1.88 41.39 2.08"/><polygon class="cls-10" points="43.16 2.78 42.66 22.41 42.15 2.38 42.66 2.58 43.16 2.78"/><polygon class="cls-11" points="44.43 3.28 43.93 22.91 43.42 2.89 43.93 3.09 44.43 3.28"/><polygon class="cls-12" points="45.7 3.79 45.2 23.4 44.69 3.39 45.2 3.59 45.7 3.79"/><polygon class="cls-13" points="46.97 4.29 46.47 23.89 45.96 3.89 46.47 4.09 46.97 4.29"/><polygon class="cls-14" points="48.25 4.79 47.75 24.39 47.24 4.39 47.75 4.59 48.25 4.79"/><polygon class="cls-15" points="49.52 5.29 49.02 24.88 48.51 4.9 49.02 5.09 49.52 5.29"/><polygon class="cls-16" points="50.79 5.8 50.29 25.38 49.78 5.4 50.29 5.6 50.79 5.8"/><polygon class="cls-17" points="52.06 6.3 51.56 25.87 51.06 5.9 51.56 6.1 52.06 6.3"/><polygon class="cls-18" points="73.53 25.09 72.9 50.08 72.25 24.58 72.9 24.84 73.53 25.09"/><polygon class="cls-19" points="74.51 25.48 75.15 25.72 74.51 50.7 73.86 25.22 74.51 25.48"/><text/><polygon class="cls-20" points="78.38 27 77.75 51.96 77.1 26.5 77.75 26.75 78.38 27"/><polygon class="cls-21" points="80 27.65 79.37 52.59 78.72 27.14 79.37 27.39 80 27.65"/><polygon class="cls-22" points="81.62 28.28 80.98 53.22 80.33 27.78 80.98 28.03 81.62 28.28"/><polygon class="cls-23" points="83.24 28.92 82.6 53.84 81.95 28.42 82.6 28.67 83.24 28.92"/><polygon class="cls-24" points="84.85 29.56 84.22 54.47 83.57 29.06 84.22 29.31 84.85 29.56"/><polygon class="cls-25" points="86.47 30.2 85.84 55.1 85.19 29.7 85.84 29.95 86.47 30.2"/><polygon class="cls-26" points="88.09 30.84 87.45 55.73 86.81 30.34 87.45 30.59 88.09 30.84"/><polygon class="cls-27" points="56.25 52.12 55.97 63 55.69 51.9 55.97 52.01 56.25 52.12"/><polygon class="cls-28" points="56.68 52.29 56.95 52.4 56.68 63.27 56.39 52.18 56.68 52.29"/><polygon class="cls-29" points="57.66 52.68 57.38 63.55 57.1 52.46 57.38 52.57 57.66 52.68"/><polygon class="cls-30" points="58.36 52.95 58.08 63.82 57.8 52.73 58.08 52.85 58.36 52.95"/><polygon class="cls-31" points="59.06 53.23 58.79 64.09 58.51 53.01 58.79 53.12 59.06 53.23"/><polygon class="cls-32" points="59.77 53.51 59.49 64.37 59.21 53.29 59.49 53.4 59.77 53.51"/><polygon class="cls-33" points="60.47 53.79 60.2 64.64 59.91 53.57 60.2 53.68 60.47 53.79"/><polygon class="cls-34" points="61.18 54.07 60.9 64.91 60.62 53.85 60.9 53.96 61.18 54.07"/><polygon class="cls-35" points="61.88 54.35 61.6 65.19 61.33 54.13 61.6 54.24 61.88 54.35"/><polygon class="cls-36" points="62.59 54.62 62.31 65.46 62.03 54.41 62.31 54.52 62.59 54.62"/><path class="cls-37" d="M94.19,74.59l4.06,1,4.06,1,8.11,2a.51.51,0,0,1,.35.6.49.49,0,0,1-.45.39h0c-1.16,0-2.33.07-3.49,0H54.47V78.48H56.3v1.09H4c-1.16,0-2.33,0-3.49-.06h0A.47.47,0,0,1,0,79a.5.5,0,0,1,.36-.47l8.11-2c2.7-.67,5.41-1.32,8.12-2-2.66.83-5.33,1.66-8,2.47l-8,2.45-.12-1c1.16,0,2.33-.08,3.49,0H56.3v1.09H54.47V78.48h52.34c1.16,0,2.33,0,3.49,0l-.12,1-8-2.45-4-1.23Z"/><text id="My_Company" data-name="My Company" class="cls-38" transform="translate(7.17 97.29) scale(0.95 1)"><tspan class="cls-39">M</tspan><tspan x="14.68" y="0">y</tspan><tspan class="cls-40" x="23.2" y="0"> </tspan><tspan class="cls-41" x="27.04" y="0">C</tspan><tspan class="cls-42" x="37.33" y="0">ompa</tspan><tspan class="cls-43" x="81.38" y="0">n</tspan><tspan class="cls-42" x="91.19" y="0">y</tspan></text><text class="cls-44" transform="translate(15.19 105.85) scale(0.95 1)">R<tspan class="cls-45" x="4.35" y="0">ei</tspan><tspan class="cls-46" x="11.25" y="0">n</tspan><tspan class="cls-47" x="15.61" y="0">v</tspan><tspan class="cls-48" x="19.59" y="0">e</tspan><tspan class="cls-49" x="23.73" y="0">n</tspan><tspan class="cls-45" x="28.13" y="0">ting </tspan><tspan class="cls-50" x="45.66" y="0">S</tspan><tspan class="cls-51" x="49.79" y="0">omething</tspan></text></g></g></svg>